<?xml version="1.0" encoding="UTF-8" standalone="no"?>
<!-- Created with Inkscape (http://www.inkscape.org/) -->

<svg
   xmlns:svg="http://www.w3.org/2000/svg"
   xmlns="http://www.w3.org/2000/svg"
   version="1.1"
   width="463"
   height="463"
   viewBox="-0.327 -0.089 463 463"
   id="svg2"
   xml:space="preserve">
	<defs
   id="defs4" />
	<path
   d="M 231.17299,451.91098 C 109.39398,451.91098 10.673,353.19001 10.673,231.411 c 0,-121.77795 98.72098,-220.500001 220.49999,-220.500001 121.77901,0 220.49999,98.722051 220.49999,220.500001 0,121.78007 -98.72098,220.49998 -220.49999,220.49998 z"
   id="path2827"
   style="fill:#ffffff;stroke:#000000;stroke-width:22;stroke-miterlimit:4;stroke-opacity:1;stroke-dasharray:none" /><path
   d="m 120.805,110.043 c 24.267,-7.07 126.586,6.86 105.678,105.837 -7.609,36.019 -49.357,53.566 -69.592,68.72 -47.901,35.873 -6.648,121.071 -6.648,121.071 0,0 -22.318,-66.267 27.382,-97.619 C 223.352,279.206 380.998,292.759 380.456,203.786 379.417,33.321 113.795,94.816 120.805,110.043 z"
   id="path8" /><rect
   width="20.208"
   height="250.63"
   x="141.205"
   y="61.290001"
   id="rect10" />
</svg>